<svg width="44" height="44" viewBox="0 0 44 44" fill="none" xmlns="http://www.w3.org/2000/svg">
<path d="M26.0284 28.8098H18.1759V14.8024H26.0284V28.8098Z" fill="#FF5F00"/>
<path d="M18.679 21.805C18.679 18.9635 20.0193 16.4323 22.1067 14.8012C20.5802 13.6085 18.6539 12.8965 16.5602 12.8965C11.6039 12.8965 7.58621 16.8849 7.58621 21.805C7.58621 26.7249 11.6039 30.7133 16.5602 30.7133C18.6539 30.7133 20.5802 30.0014 22.1067 28.8086C20.0193 27.1775 18.679 24.6464 18.679 21.805Z" fill="#EB001B"/>
<path d="M36.6191 21.805C36.6191 26.7249 32.6013 30.7133 27.645 30.7133C25.5514 30.7133 23.625 30.0014 22.0981 28.8086C24.186 27.1775 25.5263 24.6464 25.5263 21.805C25.5263 18.9635 24.186 16.4323 22.0981 14.8012C23.625 13.6085 25.5514 12.8965 27.645 12.8965C32.6013 12.8965 36.6191 16.8849 36.6191 21.805Z" fill="#F79E1B"/>
</svg>
